<svg xmlns="http://www.w3.org/2000/svg" version="1.1" xmlns:xlink="http://www.w3.org/1999/xlink" xmlns:svgjs="http://svgjs.dev/svgjs" width="1000" height="803" viewBox="0 0 1000 803"><g transform="matrix(1,0,0,1,0,0)"><svg viewBox="0 0 448 360" data-background-color="#ffffff" preserveAspectRatio="xMidYMid meet" height="803" width="1000" xmlns="http://www.w3.org/2000/svg" xmlns:xlink="http://www.w3.org/1999/xlink"><g id="tight-bounds" transform="matrix(1,0,0,1,0,0)"><svg viewBox="0 0 448 360" height="360" width="448"><g><svg></svg></g><g><svg viewBox="0 0 448 360" height="360" width="448"><g><path xmlns="http://www.w3.org/2000/svg" d="M193.855 44.683c1.378 0 2.494 1.116 2.495 2.494 0 1.378-1.116 2.494-2.495 2.495h-23.846l-17.167 17.167c-0.973 0.973-2.551 0.973-3.53 0-0.973-0.973-0.973-2.551 0-3.529l13.644-13.645h-40.378c-11.518 0-19.151 2.688-23.815 8.113-4.739 5.519-6.66 14.056-6.66 25.63 0 0.069 0 0.137-0.006 0.206l0.212 36.692 14.692-14.692c0.973-0.973 2.551-0.973 3.53 0 0.973 0.973 0.973 2.551 0 3.53l-18.178 18.178c0.206 35.832 0.193 71.358-0.013 107.19 25.486 25.2 50.617 50.312 75.811 75.791h25.38c1.378 0 2.494 1.116 2.495 2.495 0 1.378-1.116 2.494-2.495 2.494h-20.448l25.942 26.241 0.006-0.006c8.188 8.188 15.577 12.859 22.824 13.413 7.146 0.543 14.442-2.956 22.586-11.093l28.555-28.555h-20.722c-1.378 0-2.494-1.116-2.495-2.494 0-1.378 1.116-2.494 2.495-2.495h25.711l16.625-16.625c0.973-0.973 2.551-0.973 3.529 0 0.973 0.973 0.973 2.551 0 3.53l-13.101 13.102h40.377c11.518 0 19.151-2.688 23.815-8.113 4.739-5.519 6.66-14.056 6.66-25.63h0.013l-0.212-36.898-16.014 16.014c-0.973 0.973-2.551 0.973-3.53 0-0.973-0.973-0.973-2.551 0-3.53l19.5-19.5c-0.206-35.832-0.193-71.358 0.013-107.19-25.486-25.2-50.617-50.312-75.811-75.791h-26.147c-1.378 0-2.494-1.116-2.495-2.495 0-1.378 1.116-2.494 2.495-2.494h21.215l-25.824-26.123c-0.044-0.037-0.081-0.075-0.124-0.112-8.188-8.188-15.577-12.859-22.824-13.413-7.146-0.543-14.442 2.956-22.586 11.093l-28.555 28.555h18.858zM122.578 44.683h45.367l32.078-32.078c9.248-9.248 17.81-13.195 26.484-12.534 8.568 0.649 16.956 5.824 25.985 14.854 0.05 0.05 0.094 0.094 0.137 0.143l29.278 29.615h43.508c13.071 0 21.919 3.268 27.594 9.871 5.6 6.517 7.864 16.101 7.864 28.867 0 0.081-0.006 0.156-0.012 0.23l-0.225 39.742 28.43 28.112 0.006-0.006c9.03 9.03 14.206 17.411 14.854 25.985 0.661 8.674-3.293 17.236-12.534 26.484l-30.768 30.768 0.237 41.843h0.012c0 12.765-2.27 22.35-7.864 28.867-5.675 6.604-14.524 9.872-27.594 9.871h-45.366l-32.078 32.078c-9.248 9.248-17.81 13.195-26.484 12.534-8.568-0.649-16.956-5.824-25.985-14.854l0.006-0.006-29.421-29.758h-43.509c-13.071 0-21.919-3.268-27.594-9.872-5.6-6.517-7.864-16.101-7.863-28.866h0.012l0.231-39.972-28.293-27.969c-0.05-0.044-0.1-0.087-0.143-0.137-9.03-9.03-14.206-17.411-14.854-25.985-0.661-8.674 3.293-17.236 12.534-26.484l30.768-30.768-0.237-41.607c-0.006-0.075-0.012-0.156-0.012-0.23 0-12.765 2.27-22.35 7.864-28.867 5.675-6.604 14.524-9.872 27.594-9.871zM87.682 179.997l-0.274-47.724-27.276 27.276c-8.138 8.138-11.636 15.44-11.094 22.587 0.549 7.246 5.226 14.642 13.413 22.823 0.037 0.037 0.081 0.081 0.113 0.125l24.837 24.551 0.281-49.644zM92.303 241.483l-0.2 35.09h0.013c0 11.58 1.921 20.117 6.66 25.63 4.664 5.432 12.297 8.113 23.815 8.113h38.576l-33.55-33.936-35.308-34.903zM325.415 49.672h-38.575l33.549 33.936 35.308 34.902 0.2-34.884c-0.006-0.069-0.006-0.137-0.007-0.205 0-11.58-1.921-20.117-6.66-25.63-4.664-5.432-12.297-8.113-23.815-8.113zM360.599 130.352l-0.281 49.645 0.274 47.724 27.276-27.276c8.138-8.138 11.636-15.44 11.094-22.587-0.549-7.252-5.226-14.642-13.413-22.824l0.006-0.006-24.956-24.669z" fill="#ed1703" fill-rule="nonzero" stroke="none" stroke-width="1" stroke-linecap="butt" stroke-linejoin="miter" stroke-miterlimit="10" stroke-dasharray="" stroke-dashoffset="0" font-family="none" font-weight="none" font-size="none" text-anchor="none" style="mix-blend-mode: normal" data-fill-palette-color="tertiary"></path></g><g transform="matrix(1,0,0,1,172.88008668730652,90)"><svg viewBox="0 0 102.239826625387 180" height="180" width="102.239826625387"><g><svg viewBox="0 0 102.239826625387 180" height="180" width="102.239826625387"><g><svg viewBox="0 0 102.239826625387 180" height="180" width="102.239826625387"><g id="textblocktransform"><svg viewBox="0 0 102.239826625387 180" height="180" width="102.239826625387" id="textblock"><g><svg viewBox="0 0 102.239826625387 180" height="180" width="102.239826625387"><path d="M102 38.607C101.52 19.923 100.15 14.728 100.15 14.728 95.944-4.516 90.696-0.368 85.98 2.397 77.655 2.509 69.364 6.62 61.059 8.824 43.625 9.161 26.043 3.63 8.696 17.27 7.067 21.455-1.69 18.092 0.29 40.998 0.809 50.527 2.703 61.102 2.645 69.846 2.905 71.378 3.265 67.866 3.419 70.07 3.957 76.012 4.837 73.209 5.558 76.722 4.553 86.101 5.274 93.911 5.962 102.095 4.75 104.225 3.198 103.216 2.501 110.278 2.429 115.398 2.039 114.426 1.612 114.202 1.299 114.052 0.67 114.613 0.775 116.22 1.136 121.713-0.412 124.889 0.559 130.27-0.109 136.099 1.02 141.144 0.867 147.459 0.847 148.73 0.953 149.813 1.121 150.112 1.866 151.719 0.78 154.858 0.895 158.258 8.538 181.501 16.829 165.433 24.659 176.12 26.692 168.647 25.164 178.773 25.976 177.204 26.61 175.373 27.072 182.959 27.788 178.661 27.898 177.428 27.73 174.514 28.124 175.074 28.331 175.373 28.514 175.298 28.543 173.579 28.586 171.001 28.206 172.608 28.105 171.263 29.196 164.462 28.927 180.642 29.951 179.969 29.903 177.989 29.605 175.149 30.215 175.522 30.821 172.682 30.84 170.328 31.378 176.718 31.398 178.101 31.494 179.072 31.648 179.745 33.33 172.795 35.002 182.211 36.766 179.072 37.848 175.635 38.886 180.941 39.982 179.633 40.367 178.587 40.756 176.718 41.126 179.857 45.659 180.53 50.489 177.727 54.786 179.969 66.269 175.784 78.54 181.688 90.647 176.158 93.503 174.028 96.468 171.001 99.251 168.572 99.251 168.572 101.505 161.921 101.505 132.026S101.986 105.869 102.058 82.065C102.13 58.262 102.467 57.29 101.986 38.607Z" opacity="1" fill="#ed1703" data-fill-palette-color="tertiary"></path><g transform="matrix(1,0,0,1,31.584,19.1)"><svg width="39.071826625387" viewBox="-1.9800000190734863 -35.77000045776367 13.040000915527344 47.31999969482422" height="141.8" data-palette-color="#ffffff"><path d="M-0.17 11.55L-1.98 8.69Q0.27 7.25 1.64 5.7 3 4.15 3.75 2.4 4.49 0.66 4.74-1.32 4.98-3.3 4.98-5.62L4.98-5.62 4.98-35.77 11.06-35.77 11.06-7.32Q11.06-4.17 10.53-1.42 10.01 1.34 8.73 3.71 7.45 6.08 5.29 8.04 3.13 10.01-0.17 11.55L-0.17 11.55Z" opacity="1" transform="matrix(1,0,0,1,0,0)" fill="#ffffff" class="undefined-text-0" data-fill-palette-color="quaternary" id="text-0"></path></svg></g></svg></g></svg></g></svg></g><g></g></svg></g></svg></g></svg></g><defs></defs></svg><rect width="448" height="360" fill="none" stroke="none" visibility="hidden"></rect></g></svg></g></svg>